<svg xmlns="http://www.w3.org/2000/svg" width="985" height="604" viewBox="0 0 985 604" font-family="Menlo, Consolas, monospace" font-size="12">
<defs><marker id="arrow" viewBox="0 0 10 10" refX="10" refY="5" markerWidth="7" markerHeight="7" orient="auto-start-reverse"><path d="M0,0 L10,5 L0,10 z" fill="#444"/></marker></defs>
<rect width="100%" height="100%" fill="white"/>
<path d="M657.7,166 L671,166 Q679,166 679,174 L679,294 Q679,302 671,302 L654.1,302" fill="none" stroke="#444" stroke-width="1.3" stroke-linejoin="round" marker-end="url(#arrow)"/>
<path d="M657.7,166 C706.4,166 706.4,302 755,302" fill="none" stroke="#444" stroke-width="1.3" stroke-linejoin="round" marker-end="url(#arrow)"/>
<path d="M654.1,302 L677,302 Q685,302 685,294 L685,174 Q685,166 677,166 L657.7,166" fill="none" stroke="#444" stroke-width="1.3" stroke-linejoin="round" marker-end="url(#arrow)"/>
<path d="M665,438 L683,438 Q691,438 691,430 L691,174 Q691,166 683,166 L657.7,166" fill="none" stroke="#444" stroke-width="1.3" stroke-linejoin="round" marker-end="url(#arrow)"/>
<path d="M665,438 L689,438 Q697,438 697,430 L697,310 Q697,302 689,302 L654.1,302" fill="none" stroke="#444" stroke-width="1.3" stroke-linejoin="round" marker-end="url(#arrow)"/>
<path d="M665,438 C710,438 710,302 755,302" fill="none" stroke="#444" stroke-width="1.3" stroke-linejoin="round" marker-end="url(#arrow)"/>
<path d="M665,438 L695,438 Q703,438 703,430 L703,84 Q703,76 695,76 L264.1,76 Q256.1,76 256.1,84 L256.1,294 Q256.1,302 264.1,302 L294.1,302" fill="none" stroke="#444" stroke-width="1.3" stroke-linejoin="round" marker-end="url(#arrow)"/>
<path d="M884.5,302 L920.5,302 Q928.5,302 928.5,294 L928.5,78 Q928.5,70 920.5,70 L484.9,70 Q476.9,70 476.9,78 L476.9,430 Q476.9,438 484.9,438 L520.9,438" fill="none" stroke="#444" stroke-width="1.3" stroke-linejoin="round" marker-end="url(#arrow)"/>
<path d="M884.5,302 L891.5,302 Q898.5,302 898.5,294 L898.5,108 Q898.5,100 890.5,100 L288.1,100 Q280.1,100 280.1,108 L280.1,294 Q280.1,302 287.1,302 L294.1,302" fill="none" stroke="#444" stroke-width="1.3" stroke-linejoin="round" marker-end="url(#arrow)"/>
<path d="M430.9,302 C479.6,302 479.6,166 528.2,166" fill="none" stroke="#444" stroke-width="1.3" stroke-linejoin="round" marker-end="url(#arrow)"/>
<path d="M430.9,302 C481.4,302 481.4,302 531.9,302" fill="none" stroke="#444" stroke-width="1.3" stroke-linejoin="round" marker-end="url(#arrow)"/>
<path d="M430.9,302 C475.9,302 475.9,438 520.9,438" fill="none" stroke="#444" stroke-width="1.3" stroke-linejoin="round" marker-end="url(#arrow)"/>
<path d="M204.1,302 C249.1,302 249.1,302 294.1,302" fill="none" stroke="#444" stroke-width="1.3" stroke-linejoin="round" marker-end="url(#arrow)"/>
<path d="M657.7,186 L697.7,186" stroke="#c05621" stroke-width="1.6" marker-end="url(#arrow)"/>
<text x="701.7" y="190" fill="#c05621">env</text>
<rect x="528.2" y="116" width="129.5" height="100" rx="14" fill="#fafafa" stroke="#c05621" stroke-width="2"/>
<text x="593" y="138" text-anchor="middle" font-weight="bold">n1 (out)</text>
<text x="593" y="154" text-anchor="middle">aa</text>
<text x="593" y="170" text-anchor="middle">aaa -&gt; forget;1</text>
<text x="593" y="186" text-anchor="middle">a -&gt; a</text>
<text x="593" y="202" text-anchor="middle">aaa -&gt; a</text>
<rect x="531.9" y="252" width="122.2" height="100" rx="14" fill="#fafafa" stroke="#333" stroke-width="1.3"/>
<text x="593" y="274" text-anchor="middle" font-weight="bold">n2</text>
<text x="593" y="290" text-anchor="middle">aa</text>
<text x="593" y="306" text-anchor="middle">aa -&gt; forget;1</text>
<text x="593" y="322" text-anchor="middle">aaa -&gt; forget</text>
<text x="593" y="338" text-anchor="middle">a* -&gt; forget;1</text>
<rect x="520.9" y="388" width="144.1" height="100" rx="14" fill="#fafafa" stroke="#333" stroke-width="1.3"/>
<text x="593" y="410" text-anchor="middle" font-weight="bold">n3</text>
<text x="593" y="426" text-anchor="middle">a</text>
<text x="593" y="442" text-anchor="middle">aa -&gt; a</text>
<text x="593" y="458" text-anchor="middle">a -&gt; a</text>
<text x="593" y="474" text-anchor="middle">a(a)* -&gt; forget;1</text>
<rect x="755" y="260" width="129.5" height="84" rx="14" fill="#fafafa" stroke="#333" stroke-width="1.3"/>
<text x="819.8" y="282" text-anchor="middle" font-weight="bold">n4</text>
<text x="819.8" y="298" text-anchor="middle">aa -&gt; a;1</text>
<text x="819.8" y="314" text-anchor="middle">a -&gt; a</text>
<text x="819.8" y="330" text-anchor="middle">aaa -&gt; forget;1</text>
<rect x="294.1" y="260" width="136.8" height="84" rx="14" fill="#fafafa" stroke="#333" stroke-width="1.3"/>
<text x="362.5" y="282" text-anchor="middle" font-weight="bold">n5</text>
<text x="362.5" y="298" text-anchor="middle">a</text>
<text x="362.5" y="314" text-anchor="middle">aa -&gt; a;1</text>
<text x="362.5" y="330" text-anchor="middle">aaa* -&gt; forget;1</text>
<rect x="60" y="268" width="144.1" height="68" rx="14" fill="#fafafa" stroke="#333" stroke-width="1.3"/>
<text x="132.1" y="290" text-anchor="middle" font-weight="bold">n6</text>
<text x="132.1" y="306" text-anchor="middle">aaa(aaa)* -&gt; a;1</text>
<text x="132.1" y="322" text-anchor="middle">a(aaa)+ -&gt; forget</text>
</svg>
